<svg id="Layer_1" xmlns="http://www.w3.org/2000/svg" viewBox="0 0 200 200"><style>.st0{fill-rule:evenodd;clip-rule:evenodd;fill:#f6fc06}</style><path class="st0" d="M124.6 69.2h12.3V56.9h-12.3v12.3zm-24.6 0c-6.9 0-13.2 2.3-18.3 6.2h-31v-6.2c0-10.2 8.2-18.5 18.5-18.5h61.5c10.2 0 18.5 8.2 18.5 18.5v6.2h-31c-5-3.8-11.3-6.2-18.2-6.2zm0 12.3c10.2 0 18.5 8.2 18.5 18.5s-8.2 18.5-18.5 18.5-18.5-8.2-18.5-18.5 8.3-18.5 18.5-18.5zm30.8 67.7H69.2c-10.2 0-18.5-8.2-18.5-18.5V81.5h24.7c-3.9 5.2-6.3 11.5-6.3 18.5 0 17 13.8 30.8 30.8 30.8s30.8-13.8 30.8-30.8c0-7-2.4-13.3-6.3-18.5h24.7v49.2c.1 10.3-8.1 18.5-18.3 18.5zm30.7-86.1c0-13.6-11-24.6-24.6-24.6H63.1c-13.6 0-24.6 11-24.6 24.6v73.8c0 13.6 11 24.6 24.6 24.6h73.8c13.6 0 24.6-11 24.6-24.6V63.1zM100 198.5c-54.4 0-98.5-44.1-98.5-98.5S45.6 1.5 100 1.5s98.5 44.1 98.5 98.5-44.1 98.5-98.5 98.5z"/></svg>