<?xml version="1.0" encoding="utf-8"?>
<!-- Generator: Adobe Illustrator 19.2.0, SVG Export Plug-In . SVG Version: 6.00 Build 0)  -->
<svg version="1.1" id="Layer_1" xmlns="http://www.w3.org/2000/svg" xmlns:xlink="http://www.w3.org/1999/xlink" x="0px" y="0px"
	 viewBox="0 0 540 246" style="enable-background:new 0 0 540 246;" xml:space="preserve">
<style type="text/css">
	.st0{fill:#010101;stroke:#F9F9F9;stroke-width:2;stroke-miterlimit:10;}
	.st1{fill:#FF1733;}
	.st2{fill:#F9F9F9;}
	.st3{font-family:'AvenirNext-HeavyItalic';}
	.st4{font-size:64.6459px;}
	.st5{font-size:119.8643px;}
</style>
<polygon class="st0" points="61.1,147.1 33.2,192.6 70.3,158.6 "/>
<polygon class="st0" points="126.2,136.9 157.1,180.4 117.8,149 "/>
<polygon class="st0" points="82.5,180.4 87.6,233 92.7,180.4 "/>
<path class="st1" d="M59.3,60.1C48.9,61,39.8,67.3,32.1,74.3C21.4,84,11.8,97.2,13.5,111.5c1.3,10.7,8.6,19.7,16.7,26.8
	c8.1,7.1,17.3,13.1,24.3,21.3c10.8,12.7,15.4,29.6,16.3,46.3c30.6-20.1,59.3-44.2,79.2-75c3.2-4.9,6.1-9.9,8.2-15.3
	c5-12.9,5-27.9-1.1-40.3S138.8,53.3,125,51.6c-13.7-1.7-28.4,4.8-35.5,16.7C80,63.8,69.8,59.2,59.3,60.1z"/>
<path class="st0" d="M90.8,10.7c0,0,13.9,0.5,20.1,13c0,0,1.1,3.4-8.3,3.1l-6.8,80.1l52.9-57.4c0,0-6.3-7.4-3-10.2
	c4.4-3.7,13.1-0.7,16.9,2.6c1.7,1.5,3.2,3.7,4.1,5.7c1.6,3.6,0.8,5.9,0.3,9.5c0,0-0.3,2.5-8.6,0l-61.8,64.4c-8.6,4.1-13.4,0-13.4,0
	L21.2,57c-8.3,2.4-8.6,0-8.6,0C9,49.1,16.2,40.8,23.4,38.6c3-0.9,7.8-1.7,10.5,0.6c3.3,2.8-3,10.2-3,10.2l52.9,57.4L77,26.8
	c-10.4,0.6-8.3-3.1-8.3-3.1c6.2-12.6,20.1-13,20.1-13H90.8z"/>
<text transform="matrix(1.1162 0 0 1 198.709 87.6315)" class="st2 st3 st4">MISSION</text>
<text transform="matrix(1.1162 0 0 1 195.7046 185.904)" class="st2 st3 st5">CRIT</text>
</svg>
