<?xml version="1.0" encoding="utf-8"?>
<!-- Generator: Adobe Illustrator 19.2.0, SVG Export Plug-In . SVG Version: 6.00 Build 0)  -->
<svg version="1.1" id="Layer_1" xmlns="http://www.w3.org/2000/svg" xmlns:xlink="http://www.w3.org/1999/xlink" x="0px" y="0px"
	 viewBox="0 0 349 593" style="enable-background:new 0 0 349 593;" xml:space="preserve">
<style type="text/css">
	.st0{fill:#010101;stroke:#F9F9F9;stroke-width:3.5058;stroke-miterlimit:10;}
	.st1{fill:#FF1733;}
	.st2{fill:#F9F9F9;}
	.st3{font-family:'AvenirNext-HeavyItalic';}
	.st4{font-size:64.6459px;}
	.st5{font-size:119.8643px;}
</style>
<g>
	<polygon class="st0" points="123.5,248.6 74.6,328.2 139.7,268.7 	"/>
	<polygon class="st0" points="237.8,230.6 291.8,306.8 222.9,251.8 	"/>
	<polygon class="st0" points="161,306.8 169.9,399.1 179,306.8 	"/>
	<path class="st1" d="M120.4,96.1c-18.2,1.6-34.2,12.6-47.7,24.8c-18.8,17-35.6,40.1-32.6,65.2c2.2,18.8,15.1,34.6,29.3,47
		c14.2,12.5,30.4,22.9,42.6,37.3c19,22.2,27.1,51.9,28.6,81.1c53.6-35.2,103.9-77.5,138.8-131.4c5.5-8.5,10.7-17.4,14.4-26.8
		c8.8-22.6,8.7-48.9-1.9-70.7c-10.7-21.8-32.2-38.4-56.3-41.4s-49.8,8.5-62.2,29.3C156.6,102.6,138.9,94.4,120.4,96.1z"/>
	<path class="st0" d="M175.5,9.4c0,0,24.3,0.9,35.2,22.9c0,0,1.9,6-14.6,5.4l-12,140.3l92.7-100.7c0,0-11-13-5.2-18
		c7.6-6.5,22.9-1.1,29.7,4.6c3,2.6,5.6,6.4,7.2,10c2.9,6.3,1.4,10.3,0.5,16.6c0,0-0.6,4.3-15.2,0L185.5,203.5
		c-15.1,7.2-23.5,0-23.5,0L53.7,90.6c-14.6,4.3-15.2,0-15.2,0c-6.2-13.8,6.4-28.4,19-32.2c5.2-1.6,13.8-2.9,18.5,1.1
		c5.8,5-5.2,18-5.2,18L163.5,178l-12-140.3c-18.3,1-14.6-5.4-14.6-5.4C147.7,10.3,172,9.4,172,9.4H175.5z"/>
</g>
<g>
	<text transform="matrix(1.1162 0 0 1 10.4284 483.6315)" class="st2 st3 st4">MISSION</text>
	<text transform="matrix(1.1162 0 0 1 7.424 581.9039)" class="st2 st3 st5">CRIT</text>
</g>
</svg>
