<?xml version="1.0" encoding="utf-8"?>
<!-- Generator: Adobe Illustrator 19.2.0, SVG Export Plug-In . SVG Version: 6.00 Build 0)  -->
<svg version="1.1" id="Layer_1" xmlns="http://www.w3.org/2000/svg" xmlns:xlink="http://www.w3.org/1999/xlink" x="0px" y="0px"
	 viewBox="0 0 500 500" style="enable-background:new 0 0 500 500;" xml:space="preserve">
<style type="text/css">
	.st0{stroke:#FFFFFF;stroke-width:2;stroke-miterlimit:10;}
	.st1{fill:#FF1733;}
</style>
<polygon class="st0" points="202.4,299.8 154.1,378.6 218.4,319.8 "/>
<polygon class="st0" points="315.4,282.1 368.8,357.4 300.8,303 "/>
<polygon class="st0" points="239.5,357.4 248.4,448.7 257.3,357.4 "/>
<path class="st1" d="M199.4,149c-18,1.6-33.8,12.4-47.2,24.5c-18.6,16.8-35.2,39.7-32.3,64.5c2.2,18.6,15,34.2,29,46.5
	c14.1,12.3,30,22.6,42.2,36.9c18.8,21.9,26.8,51.4,28.3,80.2c53-34.9,102.8-76.7,137.3-129.9c5.5-8.4,10.5-17.2,14.2-26.5
	c8.7-22.4,8.6-48.4-1.9-69.9s-31.8-37.9-55.6-40.9c-23.8-3-49.3,8.4-61.5,29C235.2,155.4,217.7,147.4,199.4,149z"/>
<path class="st0" d="M253.9,63.3c0,0,24,0.8,34.8,22.6c0,0,1.9,5.9-14.4,5.4l-11.9,138.8l91.6-99.5c0,0-10.9-12.8-5.1-17.8
	c7.5-6.4,22.7-1.1,29.4,4.5c3,2.5,5.5,6.4,7.1,9.9c2.8,6.2,1.4,10.2,0.5,16.4c0,0-0.6,4.2-15,0L263.8,255.2c-15,7.1-23.3,0-23.3,0
	L133.4,143.6c-14.4,4.2-15,0-15,0c-6.2-13.7,6.3-28.1,18.8-31.9c5.2-1.6,13.6-2.9,18.3,1.1c5.8,4.9-5.1,17.8-5.1,17.8l91.6,99.5
	L230.1,91.3c-18.1,1-14.4-5.4-14.4-5.4c10.7-21.8,34.8-22.6,34.8-22.6H253.9z"/>
</svg>
