<svg id="Layer_1" xmlns="http://www.w3.org/2000/svg" viewBox="0 0 200 200"><style>.st0{fill-rule:evenodd;clip-rule:evenodd;fill:#fff}</style><path class="st0" d="M157.8 54.5c-4.4 2.8-9.2 4.9-14.5 6-4.1-4.9-10-7.9-16.6-7.9-12.6 0-22.7 11.1-22.7 24.9 0 2 .2 3.9.6 5.7-18.9-1-35.6-11-46.8-26-2 3.7-3.1 7.9-3.1 12.5 0 8.6 4 16.2 10.1 20.7-3.7-.1-7.2-1.2-10.3-3.1v.3c0 12.1 7.8 22.1 18.2 24.4-1.9.6-3.9.9-6 .9-1.5 0-2.9-.1-4.3-.4 2.9 9.8 11.3 17 21.2 17.2-7.8 6.7-17.5 10.6-28.2 10.6-1.8 0-3.7-.1-5.4-.3 10 7 22 11.1 34.8 11.1 41.8 0 64.6-37.8 64.6-70.7l-.1-3.2c4.5-3.5 8.3-7.9 11.4-12.9-4.1 2-8.5 3.3-13 3.9 4.8-3 8.4-7.9 10.1-13.7zm-57.8 144c-54.4 0-98.5-44.1-98.5-98.5S45.6 1.5 100 1.5s98.5 44.1 98.5 98.5-44.1 98.5-98.5 98.5z"/></svg>